# AST/ASF file generated using VICON BodyLanguage
# -----------------------------------------------
:version 1.10
:name VICON
:units
  mass 1.0
  length 0.45
  angle deg
:documentation
   .ast/.asf automatically generated from VICON data using
   VICON BodyBuilder and BodyLanguage model FoxedUp or BRILLIANT.MOD
:root
   order TX TY TZ RX RY RZ
   axis XYZ
   position 0 0 0  
   orientation 0 0 0 
:bonedata
  begin
     id 1 
     name lhipjoint
     direction 0.611804 -0.747784 0.257906 
     length 2.29243 
     axis 0 0 0  XYZ
  end
  begin
     id 2 
     name lfemur
     direction 0.34202 -0.939693 0  
     length 7.31159  
     axis 0 0 20  XYZ
    dof rx ry rz
    limits (-160.0 20.0)
           (-70.0 70.0)
           (-60.0 70.0)
  end
  begin
     id 3 
     name ltibia
     direction 0.34202 -0.939693 0   
     length 7.33391   
     axis 0 0 20   XYZ
    dof rx
    limits (-10.0 170.0)
  end
  begin
     id 4 
     name lfoot
     direction 0.122263 -0.335914 0.933924   
     length 1.76083   
     axis -90 7.62852e-016 20   XYZ
    dof rx rz
    limits (-45.0 90.0)
           (-70.0 20.0)
  end
  begin
     id 5 
     name ltoes
     direction 1.53533e-011 -4.2177e-011 1   
     length 0.879206   
     axis -90 7.62852e-016 20   XYZ
    dof rx
    limits (-90.0 20.0)
  end
  begin
     id 6 
     name rhipjoint
     direction -0.646469 -0.721248 0.248754   
     length 2.37677  
     axis 0 0 0  XYZ 
  end
  begin
     id 7 
     name rfemur
     direction -0.34202 -0.939693 0   
     length 7.18623   
     axis 0 0 -20   XYZ
    dof rx ry rz
    limits (-160.0 20.0)
           (-70.0 70.0)
           (-70.0 60.0)
  end
  begin
     id 8 
     name rtibia
     direction -0.34202 -0.939693 0   
     length 7.36567   
     axis 0 0 -20   XYZ
    dof rx
    limits (-10.0 170.0)
 end
 begin
     id 9 
     name rfoot
     direction -0.126681 -0.348054 0.928876   
     length 1.71902  
     axis -90 -7.62852e-016 -20   XYZ
    dof rx rz
    limits (-45.0 90.0)
           (-20.0 70.0)
  end
  begin
     id 10 
     name rtoes
     direction -1.53551e-011 -4.21898e-011 1   
     length 0.857792   
     axis -90 -7.62852e-016 -20   XYZ
    dof rx
    limits (-90.0 20.0)
  end
  begin
     id 11 
     name lowerback
     direction 0.0106509 0.999778 0.0181844   
     length 2.07668   
     axis 0 0 0   XYZ
    dof rx ry rz
    limits (-20.0 45.0)
           (-30.0 30.0)
           (-30.0 30.0)
  end
  begin
     id 12 
     name upperback
     direction -0.00456018 0.999989 -0.000590935   
     length 2.08011   
     axis 0 0 0   XYZ
    dof rx ry rz
    limits (-20.0 45.0)
           (-30.0 30.0)
           (-30.0 30.0)
  end
  begin
     id 13 
     name thorax
     direction -0.00910382 0.999916 -0.00923765   
     length 2.07397   
     axis 0 0 0   XYZ
    dof rx ry rz
    limits (-20.0 45.0)
           (-30.0 30.0)
           (-30.0 30.0)
  end
  begin
     id 14 
     name lowerneck
     direction 0.00171967 0.99778 0.0665733   
     length 1.67556   
     axis 0 0 0   XYZ
    dof rx ry rz
    limits (-20.0 45.0)
           (-30.0 30.0)
           (-30.0 30.0)
  end
  begin
     id 15 
     name upperneck
     direction -0.0143166 0.991302 -0.130828   
     length 1.68462   
     axis 0 0 0   XYZ
    dof rx ry rz
    limits (-20.0 45.0)
           (-30.0 30.0)
           (-30.0 30.0)
  end
  begin
     id 16
     name head
     direction -0.00606378 0.998665 -0.0512995  
     length 1.69269  
     axis 0 0 0   XYZ
    dof rx ry rz
    limits (-20.0 45.0)
           (-30.0 30.0)
           (-30.0 30.0)
  end
  begin
     id 17 
     name lclavicle
     direction 0.9638 0.179341 0.197297  
     length 4.12888  
     axis 0 0 0   XYZ
    dof ry rz
    limits (-20.0 10.0)
           (0.0 20.0)
  end
  begin
     id 18 
     name lhumerus
     direction 1 -4.48972e-011 -2.47351e-027   
     length 5.01834   
     axis -180 -30 -90   XYZ
    dof rx ry rz
    limits (-60.0 90.0)
           (-90.0 90.0)
           (-90.0 90.0)
  end
  begin
     id 19
     name lradius
     direction 1 -4.48965e-011 1.51591e-026   
     length 3.4869   
     axis -180 -30 -90   XYZ
    dof rx
    limits (-10.0 170.0)
  end
  begin
     id 20
     name lwrist
     direction 1 -4.48957e-011 2.70032e-026   
     length 1.74345   
     axis -1.81515e-014 90 90   XYZ
    dof ry
    limits (-180.0 0.0)
 end
  begin
     id 21 
     name lhand
     direction 1 -4.48951e-011 5.40064e-026   
     length 0.76799   
     axis -3.44607e-014 90 90   XYZ
    dof rx rz
    limits (-90.0 90.0)
           (-45.0 45.0)
  end
  begin
     id 22 
     name lfingers
     direction 1 -4.48971e-011 1.08013e-025   
     length 0.619174   
     axis -6.89214e-014 90 90   XYZ
    dof rx
    limits (0.0 90.0)
  end
  begin
     id 23
     name lthumb
     direction 0.707107 -6.34931e-011 0.707107   
     length 0.889013   
     axis -90 45 2.85299e-015   XYZ
    dof rx rz
    limits (-45.0 45.0)
           (-45.0 45.0)
  end
  begin
     id 24 
     name rclavicle
     direction -0.961409 0.252588 0.109054   
     length 4.04305  
     axis 0 0 0   XYZ 
    dof ry rz
    limits (-10.0 20.0)
           (-20.0 0.0)
  end
  begin
     id 25 
     name rhumerus
     direction -1 -4.4897e-011 1.33872e-017  
     length 4.70164   
     axis -180 30 90   XYZ
    dof rx ry rz
    limits (-90.0 60.0)
           (-90.0 90.0)
           (-90.0 90.0)
  end
  begin
     id 26 
     name rradius
     direction -1 -4.48954e-011 1.83844e-026   
     length 3.49911   
     axis -180 30 90   XYZ
    dof rx
    limits (-10.0 170.0)
  end
  begin
     id 27 
     name rwrist
     direction -1 -4.49008e-011 2.70032e-026   
     length 1.74955   
     axis -1.81515e-014 -90 -90   XYZ
    dof ry
    limits (-180.0 0.0)
  end
  begin
     id 28
     name rhand
     direction -1 -4.48916e-011 5.40064e-026   
     length 0.739335   
     axis -3.44607e-014 -90 -90   XYZ
    dof rx rz
    limits (-90.0 90.0)
           (-45.0 45.0)
  end
  begin
     id 29
     name rfingers
     direction -1 -4.48987e-011 1.08013e-025   
     length 0.596071   
     axis -6.89214e-014 -90 -90   XYZ
    dof rx
    limits (0.0 90.0)
  end
  begin
     id 30
     name rthumb
     direction -0.707107 -6.34935e-011 0.707107   
     length 0.855843   
     axis -90 -45 -2.85299e-015   XYZ
    dof rx rz
    limits (-45.0 45.0)
           (-45.0 45.0)
  end
:hierarchy
  begin
    root lhipjoint rhipjoint lowerback
    lhipjoint lfemur
    lfemur ltibia
    ltibia lfoot
    lfoot ltoes
    rhipjoint rfemur
    rfemur rtibia
    rtibia rfoot
    rfoot rtoes
    lowerback upperback
    upperback thorax
    thorax lowerneck lclavicle rclavicle
    lowerneck upperneck
    upperneck head
    lclavicle lhumerus
    lhumerus lradius
    lradius lwrist
    lwrist lhand lthumb
    lhand lfingers
    rclavicle rhumerus
    rhumerus rradius
    rradius rwrist
    rwrist rhand rthumb
    rhand rfingers
  end

#!OML:ASF I:\salsa\salsa 7_09\Patient 1\Session 1\dancermale.ASF
:FULLY-SPECIFIED
:DEGREES
222
root 3.60444 17.3942 2.80794 373.631 145.121 358.284
lowerback -7.00133 -3.49967 1.18598
upperback -1.49024 -4.72868 2.00851
thorax 2.4504 -2.32077 0.980072
lowerneck -8.61154 -25.4754 -1.42434
upperneck 9.13469 37.9055 4.35893
head 32.1592 34.7716 -178.814
rclavicle 2.16675e-014 2.38542e-014
rhumerus -36.3711 1.68004 -69.6868
rradius 77.2597
rwrist -9.17339
rhand -39.6559 -14.9545
rfingers 7.12502
rthumb -12.636 -44.5523
lclavicle 2.16675e-014 2.38542e-014
lhumerus -35.5473 -15.6152 85.4364
lradius 86.5666
lwrist 57.8417
lhand -0.670433 52.8946
lfingers 7.12502
lthumb 24.9481 801.286
rfemur -25.0736 -2.55163 20.0434
rtibia 10.7963
rfoot -17.0831 -21.4068
rtoes -4.88729
lfemur -9.91129 9.115 -19.1245
ltibia 30.0763
lfoot -13.1021 11.3013
ltoes -12.618
223
root 3.44924 17.3973 2.94399 373.299 146.617 357.888
lowerback -6.00011 -3.69499 0.89627
upperback -1.78294 -4.93997 2.17048
thorax 1.63353 -2.43027 1.3667
lowerneck -8.34284 -25.7195 -1.79061
upperneck 9.18459 37.8725 4.28513
head 32.2162 34.8277 -178.752
rclavicle -3.77691e-015 -2.38542e-014
rhumerus -37.5051 1.67417 -70.3079
rradius 76.5439
rwrist -8.0746
rhand -40.0814 -14.6364
rfingers 7.12502
rthumb -13.0462 -44.2084
lclavicle -3.77691e-015 -2.38542e-014
lhumerus -33.9541 -16.3663 86.1259
lradius 85.4299
lwrist 58.5441
lhand -0.963386 53.364
lfingers 7.12502
lthumb 24.6673 801.794
rfemur -25.7006 -1.51079 18.9632
rtibia 11.1095
rfoot -18.3062 -21.7918
rtoes -1.17209
lfemur -9.2285 6.60706 -19.5711
ltibia 27.3757
lfoot -13.9897 12.0558
ltoes -13.7664
224
root 3.30671 17.3988 3.07773 373.239 148.163 357.699
lowerback -6.5388 -3.82577 0.657921
upperback -1.08665 -5.14873 2.3624
thorax 2.694 -2.5408 1.61169
lowerneck -9.29529 -25.9501 -1.61643
upperneck 8.74156 37.2706 4.0284
head 32.1323 34.3709 -178.802
rclavicle -5.4467e-014 1.19271e-014
rhumerus -37.1727 1.10932 -70.9863
rradius 75.5685
rwrist -6.86614
rhand -41.0501 -14.1469
rfingers 7.12502
rthumb -13.9799 -43.6569
lclavicle -5.4467e-014 1.19271e-014
lhumerus -30.3923 -17.0633 86.3055
lradius 83.7074
lwrist 59.0257
lhand -0.967199 53.7433
lfingers 7.12502
lthumb 24.6636 802.174
rfemur -26.4755 -0.581144 18.1642
rtibia 11.4166
rfoot -19.4364 -21.9537
rtoes 1.10582
lfemur -9.05955 4.44578 -19.7631
ltibia 25.3972
lfoot -14.6573 12.4217
ltoes -15.5066
225
root 3.1546 17.4046 3.21457 373.391 149.597 357.521
lowerback -6.73419 -4.02936 0.509832
upperback -0.819116 -5.43061 2.63324
thorax 3.12747 -2.68431 1.92002
lowerneck -9.72368 -25.966 -1.6597
upperneck 8.76913 37.6714 4.12488
head 32.3114 34.7495 -179.03
rclavicle -9.83984e-014 2.38542e-014
rhumerus -37.3614 1.29257 -71.645
rradius 74.7462
rwrist -5.9064
rhand -42.2067 -13.314
rfingers 7.12502
rthumb -15.0942 -42.7436
lclavicle -9.83984e-014 2.38542e-014
lhumerus -27.3604 -17.7016 86.6026
lradius 81.8533
lwrist 59.4768
lhand -1.05896 53.9267
lfingers 7.12502
lthumb 24.5757 802.369
rfemur -27.5816 -0.109703 17.4869
rtibia 11.909
rfoot -20.5142 -21.3404
rtoes 3.4681
lfemur -9.34359 2.46344 -20.0075
ltibia 24.0782
lfoot -15.6568 12.4326
ltoes -15.0738
226
root 3.00719 17.4079 3.35572 373.618 150.848 357.485
lowerback -5.97891 -4.00908 1.06693
upperback -1.37262 -5.39138 2.53082
thorax 2.07214 -2.65601 1.5906
lowerneck -9.06205 -26.3724 -1.91895
upperneck 8.98436 37.5738 4.1522
head 32.3522 34.5655 -179.011
rclavicle -3.63776e-014 -7.31528e-014
rhumerus -39.3004 1.46934 -72.592
rradius 74.2961
rwrist -5.00769
rhand -43.0472 -12.5312
rfingers 7.12502
rthumb -15.9038 -41.8982
lclavicle -3.63776e-014 -7.31528e-014
lhumerus -25.7742 -19.0944 87.0628
lradius 79.8919
lwrist 60.0278
lhand -1.25517 53.863
lfingers 7.12502
lthumb 24.3876 802.331
rfemur -28.7661 0.360437 16.9965
rtibia 12.599
rfoot -21.7481 -20.1612
rtoes 6.89633
lfemur -9.69343 0.980673 -20.0548
ltibia 22.9398
lfoot -16.5023 12.129
ltoes -13.7079
227
root 2.86876 17.4091 3.50988 373.85 151.773 357.475
lowerback -6.34897 -3.9911 1.1658
upperback -0.898394 -5.40833 2.58408
thorax 2.7641 -2.66475 1.54144
lowerneck -9.77383 -26.7901 -1.54359
upperneck 8.42207 36.3707 3.66545
head 32.0567 32.9821 -178.799
rclavicle -1.39547e-013 2.38542e-014
rhumerus -39.2708 1.58198 -73.5262
rradius 73.5017
rwrist -4.12035
rhand -43.9004 -11.8769
rfingers 7.12502
rthumb -16.7254 -41.1764
lclavicle -1.39547e-013 2.38542e-014
lhumerus -22.316 -19.7521 87.0762
lradius 77.4445
lwrist 60.048
lhand -1.36002 53.8875
lfingers 7.12502
lthumb 24.2871 802.369
rfemur -30.2409 0.770782 16.6348
rtibia 13.8263
rfoot -22.4908 -18.6648
rtoes 7.39325
lfemur -10.2549 0.806883 -19.9983
ltibia 21.8931
lfoot -16.5704 11.7195
ltoes -16.3541
228
root 2.73888 17.4038 3.6623 374.153 152.43 357.495
lowerback -5.44147 -4.06919 1.11987
upperback -1.53262 -5.45162 2.8257
thorax 1.63353 -2.68359 1.90588
lowerneck -9.11934 -26.8721 -1.93293
upperneck 8.73544 36.9381 3.70345
head 32.161 32.8374 -178.885
rclavicle -1.13904e-013 1.11319e-014
rhumerus -40.7682 2.75633 -74.2817
rradius 72.8346
rwrist -3.4295
rhand -44.6301 -11.0335
rfingers 7.12502
rthumb -17.4277 -40.2723
lclavicle -1.13904e-013 1.11319e-014
lhumerus -20.9692 -19.6084 87.9593
lradius 75.1308
lwrist 59.0913
lhand -1.32033 53.8346
lfingers 7.12502
lthumb 24.3251 802.311
rfemur -32.0947 0.551304 16.5683
rtibia 15.7398
rfoot -22.2365 -16.5059
rtoes 2.50266
lfemur -10.9185 1.46355 -19.9044
ltibia 21.0792
lfoot -16.8892 10.7801
ltoes -17.7333
229
root 2.61947 17.3852 3.80973 374.206 152.898 357.27
lowerback -5.89969 -4.08279 0.773126
upperback -0.982383 -5.49472 2.90885
thorax 2.49808 -2.71239 2.12025
lowerneck -9.97071 -26.9991 -1.56978
upperneck 8.4134 36.6968 3.46118
head 32.1309 31.9118 -178.88
rclavicle 2.22639e-014 -1.35174e-014
rhumerus -40.2814 3.22546 -74.9809
rradius 71.7723
rwrist -2.68088
rhand -45.1216 -9.66992
rfingers 7.12502
rthumb -17.9006 -38.8661
lclavicle 2.22639e-014 -1.35174e-014
lhumerus -17.6184 -19.3092 88.07
lradius 72.4825
lwrist 57.8553
lhand -1.23617 53.4225
lfingers 7.12502
lthumb 24.4058 801.888
rfemur -34.0501 0.0518261 16.4155
rtibia 18.2102
rfoot -21.2063 -13.926
rtoes -4.19378
lfemur -11.4191 2.20616 -20.1214
ltibia 20.4927
lfoot -17.6464 9.4865
ltoes -15.9684
230
root 2.5062 17.3666 3.98089 374.632 153.313 357.504
lowerback -5.74822 -4.05135 0.851875
upperback -0.933071 -5.45597 3.06221
thorax 2.47093 -2.69188 2.24655
lowerneck -10.3598 -27.1809 -1.34957
upperneck 8.24408 36.5536 3.23942
head 32.094 30.8524 -178.86
rclavicle -7.7526e-015 -5.24792e-014
rhumerus -40.284 3.73867 -75.5833
rradius 70.619
rwrist -1.83008
rhand -45.5133 -7.73518
rfingers 7.12502
rthumb -18.2775 -36.8965
lclavicle -7.7526e-015 -5.24792e-014
lhumerus -15.0282 -18.7092 88.457
lradius 69.7569
lwrist 56.53
lhand -1.26394 52.8583
lfingers 7.12502
lthumb 24.3792 801.327
rfemur -36.5707 0.162019 16.7331
rtibia 21.2627
rfoot -19.5202 -11.7945
rtoes -9.44109
lfemur -12.5659 2.7943 -19.871
ltibia 20.5453
lfoot -18.4123 8.84466
ltoes -15.304
231
root 2.40615 17.3365 4.15407 374.723 153.6 357.537
lowerback -5.20093 -4.06445 0.701924
upperback -0.977001 -5.45228 3.12632
thorax 2.1406 -2.69306 2.43758
lowerneck -10.5661 -27.2475 -1.16055
upperneck 8.30364 36.9617 3.20394
head 32.182 30.1093 -179.029
rclavicle 1.98785e-014 -7.39479e-014
rhumerus -40.3389 4.29311 -76.1524
rradius 69.336
rwrist -0.867863
rhand -45.904 -6.01324
rfingers 7.12502
rthumb -18.6533 -35.1389
lclavicle 1.98785e-014 -7.39479e-014
lhumerus -12.8651 -17.6295 88.9052
lradius 67.0634
lwrist 55.0079
lhand -1.17134 52.3594
lfingers 7.12502
lthumb 24.468 800.817
rfemur -39.0033 0.431194 16.9542
rtibia 25.9261
rfoot -19.1225 -9.3609
rtoes -10.262
lfemur -13.6764 2.60326 -19.8895
ltibia 21.1848
lfoot -19.4784 8.95446
ltoes -13.602
232
root 2.32998 17.2959 4.32057 374.64 153.867 357.53
lowerback -4.76646 -4.11392 0.509435
upperback -0.909624 -5.50646 3.07986
thorax 1.98344 -2.72534 2.52161
lowerneck -10.8969 -27.4705 -0.769432
upperneck 8.05036 36.5339 2.83682
head 31.9429 27.9736 -179.09
rclavicle -1.90833e-014 -2.06736e-014
rhumerus -40.1777 4.52154 -76.7299
rradius 67.979
rwrist 0.390574
rhand -46.0556 -4.75589
rfingers 7.12502
rthumb -18.7992 -33.8675
lclavicle -1.90833e-014 -2.06736e-014
lhumerus -10.8709 -16.3609 89.1465
lradius 64.5535
lwrist 53.4572
lhand -1.02809 51.9242
lfingers 7.12502
lthumb 24.6053 800.363
rfemur -41.2053 1.20032 17.0679
rtibia 31.1569
rfoot -18.7721 -7.34563
rtoes -9.80466
lfemur -14.8039 1.95449 -19.9222
ltibia 22.3468
lfoot -20.5828 9.42559
ltoes -11.4336
233
root 2.27306 17.2465 4.4778 374.557 154.189 357.603
lowerback -4.47576 -4.10125 0.591421
upperback -0.830626 -5.49401 2.82474
thorax 1.86904 -2.72251 2.23421
lowerneck -11.1235 -27.8195 -0.00654089
upperneck 7.97668 36.1484 2.67713
head 31.7368 25.4561 -179.437
rclavicle 3.35946e-014 -4.85035e-014
rhumerus -40.0346 4.13508 -77.3362
rradius 66.6158
rwrist 1.56931
rhand -45.7441 -3.15699
rfingers 7.12502
rthumb -18.4995 -32.2973
lclavicle 3.35946e-014 -4.85035e-014
lhumerus -9.0246 -15.4808 89.0335
lradius 62.1019
lwrist 52.1362
lhand -0.954023 51.373
lfingers 7.12502
lthumb 24.6763 799.802
rfemur -43.1663 2.38626 17.2049
rtibia 36.8155
rfoot -18.6444 -7.5965
rtoes -11.6961
lfemur -16.0714 1.34969 -19.8399
ltibia 23.8413
lfoot -21.3482 10.1357
ltoes -11.9168
234
root 2.22814 17.1917 4.63172 374.291 154.585 357.557
lowerback -4.05284 -4.13208 0.637306
upperback -0.790636 -5.53435 2.47768
thorax 1.63681 -2.74698 1.88217
lowerneck -11.2978 -28.2562 0.897171
upperneck 7.91644 35.7627 2.46298
head 31.5668 22.3489 -179.765
rclavicle 1.38155e-013 -2.46493e-014
rhumerus -39.9483 3.79121 -78.0021
rradius 65.2706
rwrist 1.77494
rhand -45.774 -1.05911
rfingers 7.12502
rthumb -18.5283 -30.1967
lclavicle 1.38155e-013 -2.46493e-014
lhumerus -7.44565 -14.5382 88.8085
lradius 59.6462
lwrist 50.5888
lhand -0.690603 50.6074
lfingers 7.12502
lthumb 24.9287 799.002
rfemur -44.7396 3.52289 17.2122
rtibia 42.5865
rfoot -18.4622 -7.66178
rtoes -8.44125
lfemur -17.381 0.709247 -19.8102
ltibia 25.619
lfoot -22.0453 10.8826
ltoes -14.3981
